<svg width="2054" height="362" viewBox="0 0 2054 362" fill="none" xmlns="http://www.w3.org/2000/svg">
<g clip-path="url(#clip0_4168_658)">
<path d="M321.186 210.771C321.184 220.457 321.186 224.762 321.186 224.762C321.186 224.762 321.263 247.852 321.186 258.321C321.111 268.787 308.695 274.459 300.793 269.921C292.892 265.382 248.692 226.243 248.692 226.243C246.412 224.402 243.573 223.399 240.648 223.399H125.163C108.515 223.399 79.1738 210.342 79.1738 193.551V71.1705C79.1738 54.3798 92.7121 40.725 109.36 40.725L290.476 57.462C307.123 57.462 321.111 71.5889 321.111 88.3798L321.186 189.246C321.186 206.037 321.188 201.084 321.186 210.771Z" fill="#6B96EC"></path>
<path d="M46.3954 270.217C47.5256 271.351 48.6557 272.486 48.6557 272.486L94.5457 318.678C99.9232 324.18 109.245 320.361 109.245 312.653V279.034C109.245 274.217 113.188 270.337 117.99 270.432L251.326 273.063C269.257 273.063 283.839 259.418 283.839 242.637L300.861 120.927C300.861 104.147 286.278 90.5 268.348 90.5L73.2601 107.227C55.3283 107.227 40.7456 120.874 40.7456 137.654C40.7456 137.654 40.6813 243.368 40.7499 254.341C40.8182 265.317 45.2653 269.084 46.3954 270.217Z" fill="#142572"></path>
<path d="M244.256 175.109C241.092 184.684 235.739 193.448 228.659 200.681L227.962 201.381C220.716 208.566 211.891 214.004 202.2 217.17C192.191 220.439 181.543 221.188 171.237 219.224L170.318 219.041C160.845 217.1 152.02 213.17 143.914 206.139C144.003 206.216 144.083 206.284 144.114 206.31C144.106 206.303 143.964 206.185 143.806 206.049C143.561 205.838 142.673 205.073 141.731 203.95C140.948 203.018 138.813 200.331 137.987 196.169C136.974 191.066 138.339 185.905 141.498 182.005L141.809 181.632C147 175.578 155.605 173.885 162.665 177.332L163.344 177.683C170.519 181.582 175.831 184.227 179.91 185.104L180.3 185.184C184.514 185.987 186.676 185.868 191.392 184.328C195.681 182.927 199.716 180.509 203.125 177.229L203.797 176.563C206.574 173.727 209.216 168.929 211.442 163.638L211.882 162.574C214.439 156.272 222.094 149.834 232.011 152.218L232.484 152.338C241.974 154.871 247.514 164.767 244.557 174.18L244.256 175.109Z" fill="white" stroke="#142572" stroke-width="6" stroke-linejoin="round"></path>
<path d="M425.278 271.5V54.3H511.58C523.374 54.3 534.033 57.2994 543.552 63.2982C553.178 69.1939 560.783 77.1576 566.37 87.1902C572.062 97.1194 574.907 108.135 574.907 120.236C574.907 129.751 573.252 138.594 569.94 146.765C566.628 154.832 561.973 161.917 555.971 168.02C549.97 174.122 542.984 178.88 535.017 182.293L584.992 271.5H537.345L487.83 186.171H468.118V271.5H425.278ZM468.118 143.352H506.456C511.114 143.352 515.355 142.214 519.185 139.939C523.116 137.56 526.22 134.405 528.498 130.475C530.878 126.441 532.067 121.994 532.067 117.133C532.067 112.375 530.878 108.031 528.498 104.101C526.22 100.067 523.116 96.8608 519.185 94.482C515.355 92.1033 511.114 90.9136 506.456 90.9136H468.118V143.352Z" fill="#142572"></path>
<path d="M726.057 112.323H768.897V271.5H725.901L723.883 251.332C719.848 257.33 714.674 262.192 708.363 265.914C702.049 269.638 694.652 271.5 686.167 271.5C674.576 271.5 663.763 269.328 653.726 264.984C643.689 260.64 634.842 254.64 627.185 246.988C619.527 239.334 613.524 230.49 609.178 220.457C604.937 210.322 602.815 199.462 602.815 187.878C602.815 176.811 604.833 166.468 608.868 156.849C612.904 147.23 618.595 138.749 625.943 131.406C633.29 124.062 641.723 118.322 651.242 114.185C660.865 110.048 671.215 107.979 682.285 107.979C691.807 107.979 700.344 109.996 707.897 114.03C715.554 118.064 722.23 123.183 727.919 129.389L726.057 112.323ZM685.079 230.386C692.116 230.386 698.48 228.576 704.171 224.957C709.863 221.337 714.364 216.475 717.676 210.373C720.988 204.168 722.644 197.341 722.644 189.895C722.644 182.344 720.988 175.518 717.676 169.416C714.364 163.313 709.863 158.452 704.171 154.832C698.48 151.212 692.116 149.402 685.079 149.402C677.94 149.402 671.472 151.212 665.677 154.832C659.884 158.452 655.278 163.365 651.864 169.571C648.449 175.673 646.741 182.448 646.741 189.895C646.741 197.341 648.449 204.168 651.864 210.373C655.382 216.475 660.037 221.337 665.833 224.957C671.628 228.576 678.044 230.386 685.079 230.386Z" fill="#142572"></path>
<path d="M896.229 218.441L934.721 239.23C927.582 248.952 918.631 256.762 907.87 262.656C897.107 268.552 885.362 271.5 872.635 271.5C858.355 271.5 845.316 267.828 833.521 260.484C821.828 253.142 812.463 243.316 805.426 231.008C798.492 218.596 795.027 204.892 795.027 189.895C795.027 178.518 797.045 167.916 801.08 158.091C805.116 148.162 810.651 139.474 817.689 132.027C824.828 124.476 833.107 118.581 842.522 114.34C851.939 110.1 861.976 107.98 872.635 107.98C885.362 107.98 897.107 110.927 907.87 116.823C918.631 122.718 927.582 130.63 934.721 140.56L896.229 161.349C893.022 157.936 889.348 155.35 885.208 153.592C881.173 151.73 876.981 150.799 872.635 150.799C866.012 150.799 860.063 152.609 854.785 156.229C849.612 159.849 845.472 164.658 842.368 170.657C839.367 176.553 837.867 182.965 837.867 189.895C837.867 196.721 839.419 203.082 842.522 208.977C845.628 214.873 849.765 219.631 854.941 223.251C860.219 226.87 866.116 228.68 872.635 228.68C877.085 228.68 881.326 227.75 885.362 225.888C889.398 224.026 893.022 221.544 896.229 218.441Z" fill="#142572"></path>
<path d="M1062.51 218.441L1101 239.23C1093.86 248.952 1084.91 256.762 1074.15 262.656C1063.39 268.552 1051.64 271.5 1038.91 271.5C1024.63 271.5 1011.6 267.828 999.798 260.484C988.105 253.142 978.74 243.316 971.705 231.008C964.772 218.596 961.304 204.892 961.304 189.895C961.304 178.518 963.322 167.916 967.357 158.091C971.393 148.162 976.93 139.474 983.966 132.027C991.107 124.476 999.384 118.581 1008.8 114.34C1018.22 110.1 1028.26 107.98 1038.91 107.98C1051.64 107.98 1063.39 110.927 1074.15 116.823C1084.91 122.718 1093.86 130.63 1101 140.56L1062.51 161.349C1059.3 157.936 1055.62 155.35 1051.49 153.592C1047.45 151.73 1043.26 150.799 1038.91 150.799C1032.29 150.799 1026.34 152.609 1021.06 156.229C1015.89 159.849 1011.75 164.658 1008.65 170.657C1005.65 176.553 1004.14 182.965 1004.14 189.895C1004.14 196.721 1005.7 203.082 1008.8 208.977C1011.9 214.873 1016.04 219.631 1021.22 223.251C1026.5 226.87 1032.39 228.68 1038.91 228.68C1043.36 228.68 1047.61 227.75 1051.64 225.888C1055.68 224.026 1059.3 221.544 1062.51 218.441Z" fill="#142572"></path>
<path d="M1205.31 271.5C1191.03 271.5 1177.99 267.828 1166.2 260.484C1154.5 253.142 1145.14 243.316 1138.1 231.008C1131.17 218.596 1127.7 204.892 1127.7 189.895C1127.7 178.518 1129.72 167.916 1133.76 158.091C1137.79 148.162 1143.33 139.474 1150.36 132.027C1157.5 124.476 1165.78 118.581 1175.2 114.34C1184.62 110.1 1194.65 107.98 1205.31 107.98C1219.59 107.98 1232.58 111.651 1244.27 118.995C1256.07 126.338 1265.43 136.216 1272.36 148.627C1279.4 161.038 1282.92 174.794 1282.92 189.895C1282.92 201.169 1280.9 211.718 1276.87 221.544C1272.83 231.37 1267.24 240.058 1260.1 247.608C1253.07 255.054 1244.84 260.898 1235.42 265.14C1226.11 269.38 1216.07 271.5 1205.31 271.5ZM1205.31 228.68C1211.93 228.68 1217.88 226.922 1223.16 223.406C1228.44 219.786 1232.58 215.028 1235.58 209.133C1238.58 203.237 1240.08 196.825 1240.08 189.895C1240.08 182.758 1238.48 176.242 1235.27 170.347C1232.16 164.348 1227.97 159.59 1222.7 156.074C1217.42 152.557 1211.62 150.799 1205.31 150.799C1198.79 150.799 1192.89 152.609 1187.62 156.229C1182.34 159.849 1178.15 164.607 1175.04 170.502C1172.04 176.398 1170.54 182.862 1170.54 189.895C1170.54 197.238 1172.09 203.858 1175.2 209.753C1178.41 215.545 1182.65 220.148 1187.93 223.561C1193.2 226.974 1199 228.68 1205.31 228.68Z" fill="#142572"></path>
<path d="M1386.9 271.5C1372.62 271.5 1359.59 267.828 1347.79 260.484C1336.1 253.142 1326.73 243.316 1319.7 231.008C1312.76 218.596 1309.3 204.892 1309.3 189.895C1309.3 178.518 1311.31 167.916 1315.35 158.091C1319.39 148.162 1324.92 139.474 1331.96 132.027C1339.1 124.476 1347.38 118.581 1356.79 114.34C1366.21 110.1 1376.25 107.98 1386.9 107.98C1401.19 107.98 1414.17 111.651 1425.87 118.995C1437.66 126.338 1447.02 136.216 1453.96 148.627C1461 161.038 1464.51 174.794 1464.51 189.895C1464.51 201.169 1462.5 211.718 1458.46 221.544C1454.42 231.37 1448.84 240.058 1441.7 247.608C1434.66 255.054 1426.43 260.898 1417.02 265.14C1407.7 269.38 1397.67 271.5 1386.9 271.5ZM1386.9 228.68C1393.53 228.68 1399.48 226.922 1404.76 223.406C1410.03 219.786 1414.17 215.028 1417.17 209.133C1420.17 203.237 1421.67 196.825 1421.67 189.895C1421.67 182.758 1420.07 176.242 1416.86 170.347C1413.76 164.348 1409.57 159.59 1404.29 156.074C1399.01 152.557 1393.22 150.799 1386.9 150.799C1380.39 150.799 1374.49 152.609 1369.21 156.229C1363.93 159.849 1359.74 164.607 1356.64 170.502C1353.64 176.398 1352.14 182.862 1352.14 189.895C1352.14 197.238 1353.69 203.858 1356.79 209.753C1360 215.545 1364.24 220.148 1369.52 223.561C1374.8 226.974 1380.59 228.68 1386.9 228.68Z" fill="#142572"></path>
<path d="M1634.96 172.829V271.5H1592.12V184.62C1592.12 179.138 1590.78 174.226 1588.09 169.882C1585.5 165.434 1581.98 161.918 1577.54 159.332C1573.19 156.746 1568.32 155.453 1562.94 155.453C1557.56 155.453 1552.65 156.746 1548.2 159.332C1543.75 161.918 1540.23 165.434 1537.64 169.882C1535.06 174.226 1533.76 179.138 1533.76 184.62V271.5H1490.92L1490.77 116.357H1533.61L1533.76 127.838C1538.94 122.873 1544.99 118.995 1551.92 116.202C1558.96 113.41 1566.36 112.013 1574.12 112.013C1585.4 112.013 1595.59 114.754 1604.7 120.236C1613.91 125.718 1621.25 133.061 1626.74 142.266C1632.22 151.368 1634.96 161.556 1634.96 172.829Z" fill="#142572"></path>
<path d="M1801.56 54.3002H1850.3L1929.15 271.5H1883.67L1870.63 235.506H1781.23L1768.19 271.5H1722.71L1801.56 54.3002ZM1796.9 192.688H1854.95L1825.77 113.099L1796.9 192.688Z" fill="#6B96EC"></path>
<path d="M1968.18 271.5V54.3002H2011.02V271.5H1968.18Z" fill="#6B96EC"></path>
</g>
<defs>
<clipPath id="clip0_4168_658">
<rect width="2054" height="362" fill="white"></rect>
</clipPath>
</defs>
</svg>